<svg height="563pt" preserveAspectRatio="xMidYMid meet" viewBox="0 0 549 563" width="549pt" xmlns="http://www.w3.org/2000/svg"><g transform="matrix(.1 0 0 -.1 0 563)"><path d="m1410 4040 20-40 252-2 253-3 66-120 66-120 57-3c37-2 57 1 55 7s-42 80-89 165l-85 155-308 1h-307z"/><path d="m2130 4075c0-7 160-298 172-312 8-10 83-13 315-13 168 0 303 3 301 8-1 4-41 78-88 164l-85 158h-307c-170 0-308-2-308-5z"/><path d="m2932 3953c39-71 80-145 92-165l21-38h308 309l-38 68c-20 37-61 111-91 165l-54 97h-309-309z"/><path d="m1010 3433c0-5 9-23 20-40l20-33h249 250l132-240 132-240h58 58l-104 188c-57 103-126 228-153 277l-50 90-306 3c-168 1-306-1-306-5z"/><path d="m3702 3308c-16-16-15-33 3-48 21-18 55-3 55 25 0 32-35 46-58 23z"/><path d="m2532 3264c-33-23-52-67-52-119 0-86 43-135 120-135 54 0 84 18 74 43-7 19-20 22-29 7-9-14-58-12-79 3-23 17-33 97-16 137 14 35 50 48 86 32 20-10 25-8 34 8 8 15 6 21-9 30-29 15-103 12-129-6z"/><path d="m3457 3253c-4-3-7-15-7-25 0-11-7-18-20-18s-20-7-20-20 7-20 20-20c18 0 20-7 20-58 0-83 17-104 83-100 38 2 52 7 52 18 0 10-13 17-35 20-35 5-35 5-38 63l-3 57h31c23 0 30 4 30 20s-7 20-30 20c-25 0-30 4-30 25 0 20-5 25-23 25-13 0-27-3-30-7z"/><path d="m2720 3190c0-11 7-20 15-20 12 0 15-13 15-60s-3-60-15-60c-8 0-15-9-15-20 0-18 7-20 65-20s65 2 65 20c0 13-7 20-20 20-16 0-20 7-20 33 0 33 23 77 41 77 5 0 9-7 9-15s9-15 20-15c14 0 20 7 20 24 0 13 3 31 6 40 10 26-62 22-78-4-7-11-16-20-19-20-4 0-9 9-12 20-4 15-14 20-41 20-29 0-36-4-36-20z"/><path d="m2983 3195c-50-35-50-135 0-170 38-27 141-16 135 14-3 13-13 15-50 13-39-3-48 0-58 17-10 20-8 21 55 21h65v35c0 71-87 112-147 70zm85-37c21-21 13-28-28-28-22 0-40 4-40 8 0 14 23 32 40 32 9 0 21-5 28-12z"/><path d="m3197 3203c-20-19-5-33 37-33 25 0 48-6 55-14 9-11 3-14-34-19-25-2-55-13-65-22-25-23-26-67-2-88 21-19 82-23 99-6 8 8 17 7 32-2 32-21 39-2 32 85-5 60-11 81-26 92-19 14-116 20-128 7zm103-111c0-37-54-59-66-27-11 27 4 45 36 45 22 0 30-5 30-18z"/><path d="m3650 3190c0-15 7-20 25-20 24 0 25-3 25-60s-1-60-25-60c-18 0-25-5-25-20 0-18 7-20 85-20 77 0 85 2 85 19 0 14-8 21-27 23-28 3-28 4-31 81l-3 77h-54c-48 0-55-2-55-20z"/><path d="m3860 3203c0-3 15-49 33-100l32-94 34 3c33 3 35 6 61 79 46 127 45 119 11 119-28 0-30-3-47-70-10-38-21-70-25-70s-9 14-13 32c-19 96-25 108-56 108-17 0-30-3-30-7z"/><path d="m4134 3195c-51-35-55-127-7-165 40-31 147-25 141 9-3 13-13 15-50 13-39-3-48 0-58 17-10 20-8 21 55 21h65v35c0 70-87 112-146 70zm84-37c21-21 13-28-28-28-22 0-40 4-40 8 0 14 23 32 40 32 9 0 21-5 28-12z"/><path d="m649 2748c17-29 86-154 153-278l124-225 307-3c169-1 307 0 307 3s-68 129-151 280l-152 275h-309-308z"/><path d="m3430 2601v-82l-30 16c-39 20-68 19-106-4-45-27-67-81-66-162 1-83 27-140 71-159 35-14 93-6 111 15 16 19 30 19 30 0 0-11 11-15 40-15h40v230 230h-22c-13 0-33 3-45 6-22 6-23 4-23-75zm-16-137c12-11 16-35 16-89 0-68-2-76-25-91-49-32-85 3-85 83 0 92 49 143 94 97z"/><path d="m2605 2631c-79-37-115-101-115-208 1-113 49-189 136-213 52-15 118-7 162 20 37 23 38 27 12 60-19 25-19 25-48 7-44-25-98-22-127 7s-39 77-33 158c4 53 9 65 36 89 36 32 69 36 113 14 28-15 30-15 53 12 22 25 22 29 7 39-54 37-135 43-196 15z"/><path d="m2943 2531c-101-47-115-234-22-303 40-30 109-34 163-10 56 25 85 79 86 156 0 135-109 210-227 157zm111-73c10-14 16-44 16-83 0-69-19-105-54-105-41 0-59 33-59 105 0 49 4 70 18 85 24 26 60 25 79-2z"/><path d="m3683 2529c-112-55-111-254 1-308 47-23 96-27 147-10 55 18 64 32 44 63-16 24-18 25-45 11-58-30-111-15-128 35l-11 30h111 111l-7 52c-10 70-37 112-86 132-54 21-87 20-137-5zm115-61c7-7 12-22 12-35 0-21-4-23-60-23-33 0-60 3-60 6 0 11 23 49 34 56 17 12 61 9 74-4z"/><path d="m4184 2540c-12-4-33-23-47-41l-25-33-7 37-7 37h-59-59v-35c0-30 3-35 23-35 21 0 22-3 20-78-1-42-2-85-2-94-1-11-9-18-21-18-16 0-20-7-20-35v-35h100 100v35c0 32-2 35-30 35-30 0-30 0-30 56 0 52 3 59 38 93l37 36 3-32c3-29 7-33 32-33 26 0 30 4 35 38 4 20 9 50 12 66 8 42-36 59-93 36z"/><path d="m1012 2152c2-5 70-131 153-280l150-272h308c169 0 306 3 304 8-2 4-43 78-91 164-47 86-102 185-122 220-19 35-47 87-61 116l-27 52h-309c-170 0-307-4-305-8z"/><path d="m3946 1808c9-18 39-72 66-120l49-88h55c30 0 54 3 54 8 0 4-28 57-63 117l-62 110-58 3-58 3z"/><path d="m1406 1498c9-18 79-147 156-285l139-253h306c286 0 305 1 298 18-3 9-57 109-119 222-63 113-129 233-147 267l-34 63h-308-308z"/><path d="m2130 1523c0-5 69-132 153-283l153-275 307-3c169-1 307 0 307 2 0 4-111 207-254 465-25 46-46 87-46 92s-139 9-310 9c-170 0-310-3-310-7z"/><path d="m2872 1517c2-7 71-136 153-285l150-272h301c165 0 303 2 306 6 3 3-36 80-87 172s-120 217-153 277l-60 110-307 3c-251 2-306 0-303-11z"/></g></svg>